# xmcd
#
# Track frame offsets:
# 150
# 20545
# 35515
# 50612
# 65550
# 73385
# 92040
# 111525
# 128412
# 144022
# 161890
# 183287
# 204735
# 220042
# 249137
#
# Disc length: 3663 seconds
#
#
# Revision: 0
# Processed by: cddbd v1.5.2PL0 Copyright (c) Steve Scherf et al.
# Submitted via: FreeRIP 2.96 
#
DISCID=da0e4d0f
DTITLE=Chuck E. Weiss - Ols Souls and Wolf Tickets
DYEAR=2002
DGENRE=Blues
TTITLE0=Congo Square at Midnight
TTITLE1=Tony did the Boogie Woogie
TTITLE2=It don't happen Overnight
TTITLE3=Sweetie-O
TTITLE4=Pigly Wiggly
TTITLE5=Two Tone Car (an autobody experience)
TTITLE6=Anthem for Old Souls
TTITLE7=Sneaky Jesus
TTITLE8=Down the Road a Piece
TTITLE9=No hep Cats
TTITLE10=Jolie's Nightmare (Mr. House Dick)
TTITLE11=Blood Alley
TTITLE12=G-d Damn Liars
TTITLE13=Dixieland Funeral
TTITLE14=Cub Scout Suit
EXTD=
EXTT0=
EXTT1=
EXTT2=
EXTT3=
EXTT4=
EXTT5=
EXTT6=
EXTT7=
EXTT8=
EXTT9=
EXTT10=
EXTT11=
EXTT12=
EXTT13=
EXTT14=
PLAYORDER=
